<?xml version="1.0" standalone="no"?>
<!DOCTYPE svg PUBLIC "-//W3C//DTD SVG 20010904//EN"
 "http://www.w3.org/TR/2001/REC-SVG-20010904/DTD/svg10.dtd">
<svg version="1.0" xmlns="http://www.w3.org/2000/svg"
 width="606" height="606" viewBox="0 0 606 606"
 preserveAspectRatio="xMidYMid meet">
<path style="fill:#ff6719; stroke:none;" d="M35 4L35 75L564 75L564 4L35 4M35 139L35 211L564 211L564 139L35 139M35 274L35 605C56.6208 598.76 78.3422 581.827 98 570.86L230 497.14C246.343 488.022 262.731 478.968 279 469.719C284.318 466.696 293.313 459.172 299.576 459.286C305.748 459.399 314.711 466.977 320 469.999C335.238 478.708 350.615 487.245 366 495.694C412.513 521.239 458.488 547.761 505 573.306C522.985 583.183 543.997 600.423 564 605L564 274L35 274z"/>
</svg>
