<?xml version="1.0" encoding="UTF-8" standalone="no"?>
<svg
   width="348"
   height="278.97278"
   viewBox="0 0 348 278.97278"
   fill="none"
   version="1.1"
   id="svg7"
   xmlns="http://www.w3.org/2000/svg"
   xmlns:svg="http://www.w3.org/2000/svg">
  <path
     d="m 0,8.0157928 c 0,-6.777 7.898,-10.484 13.111,-6.155 L 151,116.37279 c 13.334,11.073 32.666,11.073 46,0 L 334.889,1.8607928 c 5.213,-4.329 13.111,-0.622 13.111,6.155 V 242.97279 c 0,19.882 -16.118,36 -36,36 H 36 c -19.882,0 -36,-16.118 -36,-36 z"
     fill="#6d4aff"
     id="path2" />
  <path
     fill-rule="evenodd"
     clip-rule="evenodd"
     d="m 220.981,96.456793 0.019,0.016 -69.442,61.340997 c -11.83,10.449 -29.512,10.713 -41.647,0.62 L 0,67.025793 V 8.0157928 c 0,-6.777 7.898,-10.484 13.111,-6.155 L 151,116.37279 c 13.334,11.073 32.666,11.073 46,0 z"
     fill="url(#paint0_linear_5497_105457)"
     id="path3"
     style="fill:url(#paint0_linear_5497_105457)" />
  <path
     fill-rule="evenodd"
     clip-rule="evenodd"
     d="M 274,52.427793 V 278.97279 h 38 c 19.882,0 36,-16.119 36,-36 V 8.0157928 c 0,-6.777 -7.898,-10.485 -13.111,-6.154 z"
     fill="url(#paint1_linear_5497_105457)"
     id="path4"
     style="fill:url(#paint1_linear_5497_105457)" />
  <defs
     id="defs7">
    <linearGradient
       id="paint0_linear_5497_105457"
       x1="364.5"
       y1="277.5"
       x2="285.177"
       y2="-61.1409"
       gradientUnits="userSpaceOnUse"
       gradientTransform="translate(-102,-141.02721)">
      <stop
         stop-color="#E2DBFF"
         id="stop4" />
      <stop
         offset="1"
         stop-color="#6D4AFF"
         id="stop5" />
    </linearGradient>
    <linearGradient
       id="paint1_linear_5497_105457"
       x1="556"
       y1="603.5"
       x2="285.302"
       y2="25.2311"
       gradientUnits="userSpaceOnUse"
       gradientTransform="translate(-102,-141.02721)">
      <stop
         offset="0.271019"
         stop-color="#E2DBFF"
         id="stop6" />
      <stop
         offset="1"
         stop-color="#6D4AFF"
         id="stop7" />
    </linearGradient>
  </defs>
</svg>
