<svg xmlns="http://www.w3.org/2000/svg" width="1098" height="348" xmlns:v="https://vecta.io/nano"><style><![CDATA[.B{fill:none}.C{fill:#fff}.D{stroke-linecap:round}.E{stroke-linejoin:round}.F{stroke:#fff}.G{stroke-miterlimit:10}.H{stroke-width:4}.I{stroke-width:2}.J{stroke-width:1.5}.K{stroke-width:.5}.L{stroke-width:1.83}.M{stroke-width:1.67}.N{stroke-width:1.33}.O{stroke-width:1.17}]]></style><defs><clipPath id="A"><path d="M0 0h1098v348H0z" class="C"/></clipPath><clipPath id="B"><path d="M0 0h1098v348H0z"/></clipPath></defs><g clip-path="url(#B)"><g clip-path="url(#A)"><g opacity=".25" stroke="#f2f2f2" class="B D E"><path d="M91 67l-4 4m12-4l-4 4m12-4l-4 4m12-4l-4 4m12-4l-4 4m12-4l-4 4m12-4l-4 4m12-4l-4 4m20-4l-4 4m12-4l-4 4m12-4l-4 4m12-4l-4 4m12-4l-4 4m12-4l-4 4m12-4l-4 4m12-4l-4 4m12-4l-4 4m12-4l-4 4m12-4l-4 4m12-4l-4 4m12-4l-4 4m12-4l-4 4m12-4l-4 4m12-4l-4 4m12-4l-4 4m12-4l-4 4m12-4l-4 4m12-4l-4 4M91 77l-4 4m12-4l-4 4m12-4l-4 4m12-4l-4 4m12-4l-4 4m12-4l-4 4m12-4l-4 4m12-4l-4 4m20-4l-4 4m12-4l-4 4m12-4l-4 4m12-4l-4 4m12-4l-4 4m12-4l-4 4m12-4l-4 4m12-4l-4 4m12-4l-4 4m12-4l-4 4m12-4l-4 4m12-4l-4 4m12-4l-4 4m12-4l-4 4m12-4l-4 4m12-4l-4 4m12-4l-4 4m12-4l-4 4m12-4l-4 4m12-4l-4 4M91 87l-4 4m12-4l-4 4m12-4l-4 4m12-4l-4 4m12-4l-4 4m12-4l-4 4m12-4l-4 4m12-4l-4 4m20-4l-4 4m12-4l-4 4m12-4l-4 4m12-4l-4 4m12-4l-4 4m12-4l-4 4m12-4l-4 4m12-4l-4 4m12-4l-4 4m12-4l-4 4m12-4l-4 4m12-4l-4 4m12-4l-4 4m12-4l-4 4m12-4l-4 4m12-4l-4 4m12-4l-4 4m12-4l-4 4m12-4l-4 4m12-4l-4 4M91 97l-4 4m12-4l-4 4m12-4l-4 4m12-4l-4 4m12-4l-4 4m12-4l-4 4m12-4l-4 4m12-4l-4 4m20-4l-4 4m12-4l-4 4m12-4l-4 4m12-4l-4 4m12-4l-4 4m12-4l-4 4m12-4l-4 4m12-4l-4 4m12-4l-4 4m12-4l-4 4m12-4l-4 4m12-4l-4 4m12-4l-4 4m12-4l-4 4m12-4l-4 4m12-4l-4 4m12-4l-4 4m12-4l-4 4m12-4l-4 4m12-4l-4 4m-220 6l-4 4m12-4l-4 4m12-4l-4 4m12-4l-4 4m12-4l-4 4m12-4l-4 4m12-4l-4 4m12-4l-4 4m20-4l-4 4m12-4l-4 4m12-4l-4 4m12-4l-4 4m12-4l-4 4m12-4l-4 4m12-4l-4 4m12-4l-4 4m12-4l-4 4m12-4l-4 4m12-4l-4 4m12-4l-4 4m12-4l-4 4m12-4l-4 4m12-4l-4 4m12-4l-4 4m12-4l-4 4m12-4l-4 4m12-4l-4 4m12-4l-4 4m-220 6l-4 4m12-4l-4 4m12-4l-4 4m12-4l-4 4m12-4l-4 4m12-4l-4 4m12-4l-4 4m12-4l-4 4m20-4l-4 4m12-4l-4 4m12-4l-4 4m12-4l-4 4m12-4l-4 4m12-4l-4 4m12-4l-4 4m12-4l-4 4m12-4l-4 4m12-4l-4 4m12-4l-4 4m12-4l-4 4m12-4l-4 4m12-4l-4 4m12-4l-4 4m12-4l-4 4m12-4l-4 4m12-4l-4 4m12-4l-4 4m12-4l-4 4m-220 6l-4 4m12-4l-4 4m12-4l-4 4m12-4l-4 4m12-4l-4 4m12-4l-4 4m12-4l-4 4m12-4l-4 4m20-4l-4 4m12-4l-4 4m12-4l-4 4m12-4l-4 4m12-4l-4 4m12-4l-4 4m12-4l-4 4m12-4l-4 4m12-4l-4 4m12-4l-4 4m12-4l-4 4m12-4l-4 4m12-4l-4 4m12-4l-4 4m12-4l-4 4m12-4l-4 4m12-4l-4 4m12-4l-4 4m12-4l-4 4m12-4l-4 4m-220 6l-4 4m12-4l-4 4m12-4l-4 4m12-4l-4 4m12-4l-4 4m12-4l-4 4m12-4l-4 4m12-4l-4 4m20-4l-4 4m12-4l-4 4m12-4l-4 4m12-4l-4 4m12-4l-4 4m12-4l-4 4m12-4l-4 4m12-4l-4 4m12-4l-4 4m12-4l-4 4m12-4l-4 4m12-4l-4 4m12-4l-4 4m12-4l-4 4m12-4l-4 4m12-4l-4 4m12-4l-4 4m12-4l-4 4m12-4l-4 4m12-4l-4 4m-220 6l-4 4m12-4l-4 4m12-4l-4 4m12-4l-4 4m12-4l-4 4m12-4l-4 4m12-4l-4 4m12-4l-4 4m20-4l-4 4m12-4l-4 4m12-4l-4 4m12-4l-4 4m12-4l-4 4m12-4l-4 4m12-4l-4 4m12-4l-4 4m12-4l-4 4m12-4l-4 4m12-4l-4 4m12-4l-4 4m12-4l-4 4m12-4l-4 4m12-4l-4 4m12-4l-4 4m12-4l-4 4m12-4l-4 4m12-4l-4 4m12-4l-4 4m-220 6l-4 4m12-4l-4 4m12-4l-4 4m12-4l-4 4m12-4l-4 4m12-4l-4 4m12-4l-4 4m12-4l-4 4m20-4l-4 4m12-4l-4 4m12-4l-4 4m12-4l-4 4m12-4l-4 4m12-4l-4 4m12-4l-4 4m12-4l-4 4m12-4l-4 4m12-4l-4 4m12-4l-4 4m12-4l-4 4m12-4l-4 4m12-4l-4 4m12-4l-4 4m12-4l-4 4m12-4l-4 4m12-4l-4 4m12-4l-4 4m12-4l-4 4m-220 6l-4 4m12-4l-4 4m12-4l-4 4m12-4l-4 4m12-4l-4 4m12-4l-4 4m12-4l-4 4m12-4l-4 4m20-4l-4 4m12-4l-4 4m12-4l-4 4m12-4l-4 4m12-4l-4 4m12-4l-4 4m12-4l-4 4m12-4l-4 4m12-4l-4 4m12-4l-4 4m12-4l-4 4m12-4l-4 4m12-4l-4 4m12-4l-4 4m12-4l-4 4m12-4l-4 4m12-4l-4 4m12-4l-4 4m12-4l-4 4m12-4l-4 4m-220 6l-4 4m12-4l-4 4m12-4l-4 4m12-4l-4 4m12-4l-4 4m12-4l-4 4m12-4l-4 4m12-4l-4 4m20-4l-4 4m12-4l-4 4m12-4l-4 4m12-4l-4 4m12-4l-4 4m12-4l-4 4m12-4l-4 4m12-4l-4 4m12-4l-4 4m12-4l-4 4m12-4l-4 4m12-4l-4 4m12-4l-4 4m12-4l-4 4m12-4l-4 4m12-4l-4 4m12-4l-4 4m12-4l-4 4m12-4l-4 4m12-4l-4 4m-220 6l-4 4m12-4l-4 4m12-4l-4 4m12-4l-4 4m12-4l-4 4m12-4l-4 4m12-4l-4 4m12-4l-4 4m20-4l-4 4m12-4l-4 4m12-4l-4 4m12-4l-4 4m12-4l-4 4m12-4l-4 4m12-4l-4 4m12-4l-4 4m12-4l-4 4m12-4l-4 4m12-4l-4 4m12-4l-4 4m12-4l-4 4m12-4l-4 4m12-4l-4 4m12-4l-4 4m12-4l-4 4m12-4l-4 4m12-4l-4 4m12-4l-4 4m-220 6l-4 4m12-4l-4 4m12-4l-4 4m12-4l-4 4m12-4l-4 4m12-4l-4 4m12-4l-4 4m12-4l-4 4m20-4l-4 4m12-4l-4 4m12-4l-4 4m12-4l-4 4m12-4l-4 4m12-4l-4 4m12-4l-4 4m12-4l-4 4m12-4l-4 4m12-4l-4 4m12-4l-4 4m12-4l-4 4m12-4l-4 4m12-4l-4 4m12-4l-4 4m12-4l-4 4m12-4l-4 4m12-4l-4 4m12-4l-4 4m12-4l-4 4m-220 6l-4 4m12-4l-4 4m12-4l-4 4m12-4l-4 4m12-4l-4 4m12-4l-4 4m12-4l-4 4m12-4l-4 4m20-4l-4 4m12-4l-4 4m12-4l-4 4m12-4l-4 4m12-4l-4 4m12-4l-4 4m12-4l-4 4m12-4l-4 4m12-4l-4 4m12-4l-4 4m12-4l-4 4m12-4l-4 4m12-4l-4 4m12-4l-4 4m12-4l-4 4m12-4l-4 4m12-4l-4 4m12-4l-4 4m12-4l-4 4m12-4l-4 4m-220 6l-4 4m12-4l-4 4m12-4l-4 4m12-4l-4 4m12-4l-4 4m12-4l-4 4m12-4l-4 4m12-4l-4 4m20-4l-4 4m12-4l-4 4m12-4l-4 4m12-4l-4 4m12-4l-4 4m12-4l-4 4m12-4l-4 4m12-4l-4 4m12-4l-4 4m12-4l-4 4m12-4l-4 4m12-4l-4 4m12-4l-4 4m12-4l-4 4m12-4l-4 4m12-4l-4 4m12-4l-4 4m12-4l-4 4m12-4l-4 4m12-4l-4 4m-220 6l-4 4m12-4l-4 4m12-4l-4 4m12-4l-4 4m12-4l-4 4m12-4l-4 4m12-4l-4 4m12-4l-4 4m20-4l-4 4m12-4l-4 4m12-4l-4 4m12-4l-4 4m12-4l-4 4m12-4l-4 4m12-4l-4 4m12-4l-4 4m12-4l-4 4m12-4l-4 4m12-4l-4 4m12-4l-4 4m12-4l-4 4m12-4l-4 4m12-4l-4 4m12-4l-4 4m12-4l-4 4m12-4l-4 4m12-4l-4 4m12-4l-4 4m-220 6l-4 4m12-4l-4 4m12-4l-4 4m12-4l-4 4m12-4l-4 4m12-4l-4 4m12-4l-4 4m12-4l-4 4m20-4l-4 4m12-4l-4 4m12-4l-4 4m12-4l-4 4m12-4l-4 4m12-4l-4 4m12-4l-4 4m12-4l-4 4m12-4l-4 4m12-4l-4 4m12-4l-4 4m12-4l-4 4m12-4l-4 4m12-4l-4 4m12-4l-4 4m12-4l-4 4m12-4l-4 4m12-4l-4 4m12-4l-4 4m12-4l-4 4m-220 6l-4 4m12-4l-4 4m12-4l-4 4m12-4l-4 4m12-4l-4 4m12-4l-4 4m12-4l-4 4m12-4l-4 4m20-4l-4 4m12-4l-4 4m12-4l-4 4m12-4l-4 4m12-4l-4 4m12-4l-4 4m12-4l-4 4m12-4l-4 4m12-4l-4 4m12-4l-4 4m12-4l-4 4m12-4l-4 4m12-4l-4 4m12-4l-4 4m12-4l-4 4m12-4l-4 4m12-4l-4 4m12-4l-4 4m12-4l-4 4m12-4l-4 4m12-184l-4 4m12-4l-4 4m12-4l-4 4m12-4l-4 4m12-4l-4 4m12-4l-4 4m12-4l-4 4m12-4l-4 4m12-4l-4 4m12-4l-4 4m12-4l-4 4m12-4l-4 4m12-4l-4 4m12-4l-4 4m12-4l-4 4m12-4l-4 4m12-4l-4 4m12-4l-4 4m12-4l-4 4m12-4l-4 4m12-4l-4 4m12-4l-4 4m12-4l-4 4m12-4l-4 4m12-4l-4 4m12-4l-4 4m12-4l-4 4m12-4l-4 4m12-4l-4 4m-220 6l-4 4m12-4l-4 4m12-4l-4 4m12-4l-4 4m12-4l-4 4m12-4l-4 4m12-4l-4 4m12-4l-4 4m12-4l-4 4m12-4l-4 4m12-4l-4 4m12-4l-4 4m12-4l-4 4m12-4l-4 4m12-4l-4 4m12-4l-4 4m12-4l-4 4m12-4l-4 4m12-4l-4 4m12-4l-4 4m12-4l-4 4m12-4l-4 4m12-4l-4 4m12-4l-4 4m12-4l-4 4m12-4l-4 4m12-4l-4 4m12-4l-4 4m12-4l-4 4m-220 6l-4 4m12-4l-4 4m12-4l-4 4m12-4l-4 4m12-4l-4 4m12-4l-4 4m12-4l-4 4m12-4l-4 4m12-4l-4 4m12-4l-4 4m12-4l-4 4m12-4l-4 4m12-4l-4 4m12-4l-4 4m12-4l-4 4m12-4l-4 4m12-4l-4 4m12-4l-4 4m12-4l-4 4m12-4l-4 4m12-4l-4 4m12-4l-4 4m12-4l-4 4m12-4l-4 4m12-4l-4 4m12-4l-4 4m12-4l-4 4m12-4l-4 4m12-4l-4 4m-220 6l-4 4m12-4l-4 4m12-4l-4 4m12-4l-4 4m12-4l-4 4m12-4l-4 4m12-4l-4 4m12-4l-4 4m12-4l-4 4m12-4l-4 4m12-4l-4 4m12-4l-4 4m12-4l-4 4m12-4l-4 4m12-4l-4 4m12-4l-4 4m12-4l-4 4m12-4l-4 4m12-4l-4 4m12-4l-4 4m12-4l-4 4m12-4l-4 4m12-4l-4 4m12-4l-4 4m12-4l-4 4m12-4l-4 4m12-4l-4 4m12-4l-4 4m12-4l-4 4m-220 6l-4 4m12-4l-4 4m12-4l-4 4m12-4l-4 4m12-4l-4 4m12-4l-4 4m12-4l-4 4m12-4l-4 4m12-4l-4 4m12-4l-4 4m12-4l-4 4m12-4l-4 4m12-4l-4 4m12-4l-4 4m12-4l-4 4m12-4l-4 4m12-4l-4 4m12-4l-4 4m12-4l-4 4m12-4l-4 4m12-4l-4 4m12-4l-4 4m12-4l-4 4m12-4l-4 4m12-4l-4 4m12-4l-4 4m12-4l-4 4m12-4l-4 4m12-4l-4 4m-220 6l-4 4m12-4l-4 4m12-4l-4 4m12-4l-4 4m12-4l-4 4m12-4l-4 4m12-4l-4 4m12-4l-4 4m12-4l-4 4m12-4l-4 4m12-4l-4 4m12-4l-4 4m12-4l-4 4m12-4l-4 4m12-4l-4 4m12-4l-4 4m12-4l-4 4m12-4l-4 4m12-4l-4 4m12-4l-4 4m12-4l-4 4m12-4l-4 4m12-4l-4 4m12-4l-4 4m12-4l-4 4m12-4l-4 4m12-4l-4 4m12-4l-4 4m12-4l-4 4m-220 6l-4 4m12-4l-4 4m12-4l-4 4m12-4l-4 4m12-4l-4 4m12-4l-4 4m12-4l-4 4m12-4l-4 4m12-4l-4 4m12-4l-4 4m12-4l-4 4m12-4l-4 4m12-4l-4 4m12-4l-4 4m12-4l-4 4m12-4l-4 4m12-4l-4 4m12-4l-4 4m12-4l-4 4m12-4l-4 4m12-4l-4 4m12-4l-4 4m12-4l-4 4m12-4l-4 4m12-4l-4 4m12-4l-4 4m12-4l-4 4m12-4l-4 4m12-4l-4 4m-220 6l-4 4m12-4l-4 4m12-4l-4 4m12-4l-4 4m12-4l-4 4m12-4l-4 4m12-4l-4 4m12-4l-4 4m12-4l-4 4m12-4l-4 4m12-4l-4 4m12-4l-4 4m12-4l-4 4m12-4l-4 4m12-4l-4 4m12-4l-4 4m12-4l-4 4m12-4l-4 4m12-4l-4 4m12-4l-4 4m12-4l-4 4m12-4l-4 4m12-4l-4 4m12-4l-4 4m12-4l-4 4m12-4l-4 4m12-4l-4 4m12-4l-4 4m12-4l-4 4m-220 6l-4 4m12-4l-4 4m12-4l-4 4m12-4l-4 4m12-4l-4 4m12-4l-4 4m12-4l-4 4m12-4l-4 4m12-4l-4 4m12-4l-4 4m12-4l-4 4m12-4l-4 4m12-4l-4 4m12-4l-4 4m12-4l-4 4m12-4l-4 4m12-4l-4 4m12-4l-4 4m12-4l-4 4m12-4l-4 4m12-4l-4 4m12-4l-4 4m12-4l-4 4m12-4l-4 4m12-4l-4 4m12-4l-4 4m12-4l-4 4m12-4l-4 4m12-4l-4 4m-220 6l-4 4m12-4l-4 4m12-4l-4 4m12-4l-4 4m12-4l-4 4m12-4l-4 4m12-4l-4 4m12-4l-4 4m12-4l-4 4m12-4l-4 4m12-4l-4 4m12-4l-4 4m12-4l-4 4m12-4l-4 4m12-4l-4 4m12-4l-4 4m12-4l-4 4m12-4l-4 4m12-4l-4 4m12-4l-4 4m12-4l-4 4m12-4l-4 4m12-4l-4 4m12-4l-4 4m12-4l-4 4m12-4l-4 4m12-4l-4 4m12-4l-4 4m12-4l-4 4m-220 6l-4 4m12-4l-4 4m12-4l-4 4m12-4l-4 4m12-4l-4 4m12-4l-4 4m12-4l-4 4m12-4l-4 4m12-4l-4 4m12-4l-4 4m12-4l-4 4m12-4l-4 4m12-4l-4 4m12-4l-4 4m12-4l-4 4m12-4l-4 4m12-4l-4 4m12-4l-4 4m12-4l-4 4m12-4l-4 4m12-4l-4 4m12-4l-4 4m12-4l-4 4m12-4l-4 4m12-4l-4 4m12-4l-4 4m12-4l-4 4m12-4l-4 4m12-4l-4 4m-220 6l-4 4m12-4l-4 4m12-4l-4 4m12-4l-4 4m12-4l-4 4m12-4l-4 4m12-4l-4 4m12-4l-4 4m12-4l-4 4m12-4l-4 4m12-4l-4 4m12-4l-4 4m12-4l-4 4m12-4l-4 4m12-4l-4 4m12-4l-4 4m12-4l-4 4m12-4l-4 4m12-4l-4 4m12-4l-4 4m12-4l-4 4m12-4l-4 4m12-4l-4 4m12-4l-4 4m12-4l-4 4m12-4l-4 4m12-4l-4 4m12-4l-4 4m12-4l-4 4m-220 6l-4 4m12-4l-4 4m12-4l-4 4m12-4l-4 4m12-4l-4 4m12-4l-4 4m12-4l-4 4m12-4l-4 4m12-4l-4 4m12-4l-4 4m12-4l-4 4m12-4l-4 4m12-4l-4 4m12-4l-4 4m12-4l-4 4m12-4l-4 4m12-4l-4 4m12-4l-4 4m12-4l-4 4m12-4l-4 4m12-4l-4 4m12-4l-4 4m12-4l-4 4m12-4l-4 4m12-4l-4 4m12-4l-4 4m12-4l-4 4m12-4l-4 4m12-4l-4 4m-220 6l-4 4m12-4l-4 4m12-4l-4 4m12-4l-4 4m12-4l-4 4m12-4l-4 4m12-4l-4 4m12-4l-4 4m12-4l-4 4m12-4l-4 4m12-4l-4 4m12-4l-4 4m12-4l-4 4m12-4l-4 4m12-4l-4 4m12-4l-4 4m12-4l-4 4m12-4l-4 4m12-4l-4 4m12-4l-4 4m12-4l-4 4m12-4l-4 4m12-4l-4 4m12-4l-4 4m12-4l-4 4m12-4l-4 4m12-4l-4 4m12-4l-4 4m12-4l-4 4m-220 6l-4 4m12-4l-4 4m12-4l-4 4m12-4l-4 4m12-4l-4 4m12-4l-4 4m12-4l-4 4m12-4l-4 4m12-4l-4 4m12-4l-4 4m12-4l-4 4m12-4l-4 4m12-4l-4 4m12-4l-4 4m12-4l-4 4m12-4l-4 4m12-4l-4 4m12-4l-4 4m12-4l-4 4m12-4l-4 4m12-4l-4 4m12-4l-4 4m12-4l-4 4m12-4l-4 4m12-4l-4 4m12-4l-4 4m12-4l-4 4m12-4l-4 4m12-4l-4 4m-220 6l-4 4m12-4l-4 4m12-4l-4 4m12-4l-4 4m12-4l-4 4m12-4l-4 4m12-4l-4 4m12-4l-4 4m12-4l-4 4m12-4l-4 4m12-4l-4 4m12-4l-4 4m12-4l-4 4m12-4l-4 4m12-4l-4 4m12-4l-4 4m12-4l-4 4m12-4l-4 4m12-4l-4 4m12-4l-4 4m12-4l-4 4m12-4l-4 4m12-4l-4 4m12-4l-4 4m12-4l-4 4m12-4l-4 4m12-4l-4 4m12-4l-4 4m12-4l-4 4m-220 6l-4 4m12-4l-4 4m12-4l-4 4m12-4l-4 4m12-4l-4 4m12-4l-4 4m12-4l-4 4m12-4l-4 4m12-4l-4 4m12-4l-4 4m12-4l-4 4m12-4l-4 4m12-4l-4 4m12-4l-4 4m12-4l-4 4m12-4l-4 4m12-4l-4 4m12-4l-4 4m12-4l-4 4m12-4l-4 4m12-4l-4 4m12-4l-4 4m12-4l-4 4m12-4l-4 4m12-4l-4 4m12-4l-4 4m12-4l-4 4m12-4l-4 4m12-4l-4 4m-220 6l-4 4m12-4l-4 4m12-4l-4 4m12-4l-4 4m12-4l-4 4m12-4l-4 4m12-4l-4 4m12-4l-4 4m12-4l-4 4m12-4l-4 4m12-4l-4 4m12-4l-4 4m12-4l-4 4m12-4l-4 4m12-4l-4 4m12-4l-4 4m12-4l-4 4m12-4l-4 4m12-4l-4 4m12-4l-4 4m12-4l-4 4m12-4l-4 4m12-4l-4 4m12-4l-4 4m12-4l-4 4m12-4l-4 4m12-4l-4 4m12-4l-4 4m12-4l-4 4m-220 6l-4 4m12-4l-4 4m12-4l-4 4m12-4l-4 4m12-4l-4 4m12-4l-4 4m12-4l-4 4m12-4l-4 4m12-4l-4 4m12-4l-4 4m12-4l-4 4m12-4l-4 4m12-4l-4 4m12-4l-4 4m12-4l-4 4m12-4l-4 4m12-4l-4 4m12-4l-4 4m12-4l-4 4m12-4l-4 4m12-4l-4 4m12-4l-4 4m12-4l-4 4m12-4l-4 4m12-4l-4 4m12-4l-4 4m12-4l-4 4m12-4l-4 4m12-4l-4 4m12-184l-4 4m12-4l-4 4m12-4l-4 4m12-4l-4 4m12-4l-4 4m12-4l-4 4m12-4l-4 4m12-4l-4 4m12-4l-4 4m12-4l-4 4m12-4l-4 4m12-4l-4 4m12-4l-4 4m12-4l-4 4m12-4l-4 4m12-4l-4 4m12-4l-4 4m12-4l-4 4m12-4l-4 4m12-4l-4 4m12-4l-4 4m12-4l-4 4m12-4l-4 4m12-4l-4 4m12-4l-4 4m12-4l-4 4m12-4l-4 4m12-4l-4 4m12-4l-4 4m-220 6l-4 4m12-4l-4 4m12-4l-4 4m12-4l-4 4m12-4l-4 4m12-4l-4 4m12-4l-4 4m12-4l-4 4m12-4l-4 4m12-4l-4 4m12-4l-4 4m12-4l-4 4m12-4l-4 4m12-4l-4 4m12-4l-4 4m12-4l-4 4m12-4l-4 4m12-4l-4 4m12-4l-4 4m12-4l-4 4m12-4l-4 4m12-4l-4 4m12-4l-4 4m12-4l-4 4m12-4l-4 4m12-4l-4 4m12-4l-4 4m12-4l-4 4m12-4l-4 4m-220 6l-4 4m12-4l-4 4m12-4l-4 4m12-4l-4 4m12-4l-4 4m12-4l-4 4m12-4l-4 4m12-4l-4 4m12-4l-4 4m12-4l-4 4m12-4l-4 4m12-4l-4 4m12-4l-4 4m12-4l-4 4m12-4l-4 4m12-4l-4 4m12-4l-4 4m12-4l-4 4m12-4l-4 4m12-4l-4 4m12-4l-4 4m12-4l-4 4m12-4l-4 4m12-4l-4 4m12-4l-4 4m12-4l-4 4m12-4l-4 4m12-4l-4 4m12-4l-4 4m-220 6l-4 4m12-4l-4 4m12-4l-4 4m12-4l-4 4m12-4l-4 4m12-4l-4 4m12-4l-4 4m12-4l-4 4m12-4l-4 4m12-4l-4 4m12-4l-4 4m12-4l-4 4m12-4l-4 4m12-4l-4 4m12-4l-4 4m12-4l-4 4m12-4l-4 4m12-4l-4 4m12-4l-4 4m12-4l-4 4m12-4l-4 4m12-4l-4 4m12-4l-4 4m12-4l-4 4m12-4l-4 4m12-4l-4 4m12-4l-4 4m12-4l-4 4m12-4l-4 4m-220 6l-4 4m12-4l-4 4m12-4l-4 4m12-4l-4 4m12-4l-4 4m12-4l-4 4m12-4l-4 4m12-4l-4 4m12-4l-4 4m12-4l-4 4m12-4l-4 4m12-4l-4 4m12-4l-4 4m12-4l-4 4m12-4l-4 4m12-4l-4 4m12-4l-4 4m12-4l-4 4m12-4l-4 4m12-4l-4 4m12-4l-4 4m12-4l-4 4m12-4l-4 4m12-4l-4 4m12-4l-4 4m12-4l-4 4m12-4l-4 4m12-4l-4 4m12-4l-4 4m-220 6l-4 4m12-4l-4 4m12-4l-4 4m12-4l-4 4m12-4l-4 4m12-4l-4 4m12-4l-4 4m12-4l-4 4m12-4l-4 4m12-4l-4 4m12-4l-4 4m12-4l-4 4m12-4l-4 4m12-4l-4 4m12-4l-4 4m12-4l-4 4m12-4l-4 4m12-4l-4 4m12-4l-4 4m12-4l-4 4m12-4l-4 4m12-4l-4 4m12-4l-4 4m12-4l-4 4m12-4l-4 4m12-4l-4 4m12-4l-4 4m12-4l-4 4m12-4l-4 4m-220 6l-4 4m12-4l-4 4m12-4l-4 4m12-4l-4 4m12-4l-4 4m12-4l-4 4m12-4l-4 4m12-4l-4 4m12-4l-4 4m12-4l-4 4m12-4l-4 4m12-4l-4 4m12-4l-4 4m12-4l-4 4m12-4l-4 4m12-4l-4 4m12-4l-4 4m12-4l-4 4m12-4l-4 4m12-4l-4 4m12-4l-4 4m12-4l-4 4m12-4l-4 4m12-4l-4 4m12-4l-4 4m12-4l-4 4m12-4l-4 4m12-4l-4 4m12-4l-4 4m-220 6l-4 4m12-4l-4 4m12-4l-4 4m12-4l-4 4m12-4l-4 4m12-4l-4 4m12-4l-4 4m12-4l-4 4m12-4l-4 4m12-4l-4 4m12-4l-4 4m12-4l-4 4m12-4l-4 4m12-4l-4 4m12-4l-4 4m12-4l-4 4m12-4l-4 4m12-4l-4 4m12-4l-4 4m12-4l-4 4m12-4l-4 4m12-4l-4 4m12-4l-4 4m12-4l-4 4m12-4l-4 4m12-4l-4 4m12-4l-4 4m12-4l-4 4m12-4l-4 4m-220 6l-4 4m12-4l-4 4m12-4l-4 4m12-4l-4 4m12-4l-4 4m12-4l-4 4m12-4l-4 4m12-4l-4 4m12-4l-4 4m12-4l-4 4m12-4l-4 4m12-4l-4 4m12-4l-4 4m12-4l-4 4m12-4l-4 4m12-4l-4 4m12-4l-4 4m12-4l-4 4m12-4l-4 4m12-4l-4 4m12-4l-4 4m12-4l-4 4m12-4l-4 4m12-4l-4 4m12-4l-4 4m12-4l-4 4m12-4l-4 4m12-4l-4 4m12-4l-4 4m-220 6l-4 4m12-4l-4 4m12-4l-4 4m12-4l-4 4m12-4l-4 4m12-4l-4 4m12-4l-4 4m12-4l-4 4m12-4l-4 4m12-4l-4 4m12-4l-4 4m12-4l-4 4m12-4l-4 4m12-4l-4 4m12-4l-4 4m12-4l-4 4m12-4l-4 4m12-4l-4 4m12-4l-4 4m12-4l-4 4m12-4l-4 4m12-4l-4 4m12-4l-4 4m12-4l-4 4m12-4l-4 4m12-4l-4 4m12-4l-4 4m12-4l-4 4m12-4l-4 4m-220 6l-4 4m12-4l-4 4m12-4l-4 4m12-4l-4 4m12-4l-4 4m12-4l-4 4m12-4l-4 4m12-4l-4 4m12-4l-4 4m12-4l-4 4m12-4l-4 4m12-4l-4 4m12-4l-4 4m12-4l-4 4m12-4l-4 4m12-4l-4 4m12-4l-4 4m12-4l-4 4m12-4l-4 4m12-4l-4 4m12-4l-4 4m12-4l-4 4m12-4l-4 4m12-4l-4 4m12-4l-4 4m12-4l-4 4m12-4l-4 4m12-4l-4 4m12-4l-4 4m-220 6l-4 4m12-4l-4 4m12-4l-4 4m12-4l-4 4m12-4l-4 4m12-4l-4 4m12-4l-4 4m12-4l-4 4m12-4l-4 4m12-4l-4 4m12-4l-4 4m12-4l-4 4m12-4l-4 4m12-4l-4 4m12-4l-4 4m12-4l-4 4m12-4l-4 4m12-4l-4 4m12-4l-4 4m12-4l-4 4m12-4l-4 4m12-4l-4 4m12-4l-4 4m12-4l-4 4m12-4l-4 4m12-4l-4 4m12-4l-4 4m12-4l-4 4m12-4l-4 4m-220 6l-4 4m12-4l-4 4m12-4l-4 4m12-4l-4 4m12-4l-4 4m12-4l-4 4m12-4l-4 4m12-4l-4 4m12-4l-4 4m12-4l-4 4m12-4l-4 4m12-4l-4 4m12-4l-4 4m12-4l-4 4m12-4l-4 4m12-4l-4 4m12-4l-4 4m12-4l-4 4m12-4l-4 4m12-4l-4 4m12-4l-4 4m12-4l-4 4m12-4l-4 4m12-4l-4 4m12-4l-4 4m12-4l-4 4m12-4l-4 4m12-4l-4 4m12-4l-4 4m-220 6l-4 4m12-4l-4 4m12-4l-4 4m12-4l-4 4m12-4l-4 4m12-4l-4 4m12-4l-4 4m12-4l-4 4m12-4l-4 4m12-4l-4 4m12-4l-4 4m12-4l-4 4m12-4l-4 4m12-4l-4 4m12-4l-4 4m12-4l-4 4m12-4l-4 4m12-4l-4 4m12-4l-4 4m12-4l-4 4m12-4l-4 4m12-4l-4 4m12-4l-4 4m12-4l-4 4m12-4l-4 4m12-4l-4 4m12-4l-4 4m12-4l-4 4m12-4l-4 4m-220 6l-4 4m12-4l-4 4m12-4l-4 4m12-4l-4 4m12-4l-4 4m12-4l-4 4m12-4l-4 4m12-4l-4 4m12-4l-4 4m12-4l-4 4m12-4l-4 4m12-4l-4 4m12-4l-4 4m12-4l-4 4m12-4l-4 4m12-4l-4 4m12-4l-4 4m12-4l-4 4m12-4l-4 4m12-4l-4 4m12-4l-4 4m12-4l-4 4m12-4l-4 4m12-4l-4 4m12-4l-4 4m12-4l-4 4m12-4l-4 4m12-4l-4 4m12-4l-4 4m-220 6l-4 4m12-4l-4 4m12-4l-4 4m12-4l-4 4m12-4l-4 4m12-4l-4 4m12-4l-4 4m12-4l-4 4m12-4l-4 4m12-4l-4 4m12-4l-4 4m12-4l-4 4m12-4l-4 4m12-4l-4 4m12-4l-4 4m12-4l-4 4m12-4l-4 4m12-4l-4 4m12-4l-4 4m12-4l-4 4m12-4l-4 4m12-4l-4 4m12-4l-4 4m12-4l-4 4m12-4l-4 4m12-4l-4 4m12-4l-4 4m12-4l-4 4m12-4l-4 4m-220 6l-4 4m12-4l-4 4m12-4l-4 4m12-4l-4 4m12-4l-4 4m12-4l-4 4m12-4l-4 4m12-4l-4 4m12-4l-4 4m12-4l-4 4m12-4l-4 4m12-4l-4 4m12-4l-4 4m12-4l-4 4m12-4l-4 4m12-4l-4 4m12-4l-4 4m12-4l-4 4m12-4l-4 4m12-4l-4 4m12-4l-4 4m12-4l-4 4m12-4l-4 4m12-4l-4 4m12-4l-4 4m12-4l-4 4m12-4l-4 4m12-4l-4 4m12-4l-4 4m-220 6l-4 4m12-4l-4 4m12-4l-4 4m12-4l-4 4m12-4l-4 4m12-4l-4 4m12-4l-4 4m12-4l-4 4m12-4l-4 4m12-4l-4 4m12-4l-4 4m12-4l-4 4m12-4l-4 4m12-4l-4 4m12-4l-4 4m12-4l-4 4m12-4l-4 4m12-4l-4 4m12-4l-4 4m12-4l-4 4m12-4l-4 4m12-4l-4 4m12-4l-4 4m12-4l-4 4m12-4l-4 4m12-4l-4 4m12-4l-4 4m12-4l-4 4m12-4l-4 4m-220 6l-4 4m12-4l-4 4m12-4l-4 4m12-4l-4 4m12-4l-4 4m12-4l-4 4m12-4l-4 4m12-4l-4 4m12-4l-4 4m12-4l-4 4m12-4l-4 4m12-4l-4 4m12-4l-4 4m12-4l-4 4m12-4l-4 4m12-4l-4 4m12-4l-4 4m12-4l-4 4m12-4l-4 4m12-4l-4 4m12-4l-4 4m12-4l-4 4m12-4l-4 4m12-4l-4 4m12-4l-4 4m12-4l-4 4m12-4l-4 4m12-4l-4 4m12-4l-4 4m12-184l-4 4m12-4l-4 4m12-4l-4 4m12-4l-4 4m12-4l-4 4m12-4l-4 4m12-4l-4 4m12-4l-4 4m12-4l-4 4m12-4l-4 4m12-4l-4 4m12-4l-4 4m68-4l-4 4m12-4l-4 4m12-4l-4 4m12-4l-4 4m12-4l-4 4m12-4l-4 4m12-4l-4 4m12-4l-4 4m12-4l-4 4m12-4l-4 4m-220 6l-4 4m12-4l-4 4m12-4l-4 4m12-4l-4 4m12-4l-4 4m12-4l-4 4m12-4l-4 4m12-4l-4 4m12-4l-4 4m12-4l-4 4m12-4l-4 4m12-4l-4 4m68-4l-4 4m12-4l-4 4m12-4l-4 4m12-4l-4 4m12-4l-4 4m12-4l-4 4m12-4l-4 4m12-4l-4 4m12-4l-4 4m12-4l-4 4m-220 6l-4 4m12-4l-4 4m12-4l-4 4m12-4l-4 4m12-4l-4 4m12-4l-4 4m12-4l-4 4m12-4l-4 4m12-4l-4 4m12-4l-4 4m12-4l-4 4m12-4l-4 4m68-4l-4 4m12-4l-4 4m12-4l-4 4m12-4l-4 4m12-4l-4 4m12-4l-4 4m12-4l-4 4m12-4l-4 4m12-4l-4 4m12-4l-4 4m-220 6l-4 4m12-4l-4 4m12-4l-4 4m12-4l-4 4m12-4l-4 4m12-4l-4 4m12-4l-4 4m12-4l-4 4m12-4l-4 4m12-4l-4 4m12-4l-4 4m12-4l-4 4m68-4l-4 4m12-4l-4 4m12-4l-4 4m12-4l-4 4m12-4l-4 4m12-4l-4 4m12-4l-4 4m12-4l-4 4m12-4l-4 4m12-4l-4 4m-220 6l-4 4m12-4l-4 4m12-4l-4 4m12-4l-4 4m12-4l-4 4m12-4l-4 4m12-4l-4 4m12-4l-4 4m12-4l-4 4m12-4l-4 4m12-4l-4 4m12-4l-4 4m68-4l-4 4m12-4l-4 4m12-4l-4 4m12-4l-4 4m12-4l-4 4m12-4l-4 4m12-4l-4 4m12-4l-4 4m12-4l-4 4m12-4l-4 4m-220 6l-4 4m12-4l-4 4m12-4l-4 4m12-4l-4 4m12-4l-4 4m12-4l-4 4m12-4l-4 4m12-4l-4 4m12-4l-4 4m12-4l-4 4m12-4l-4 4m12-4l-4 4m68-4l-4 4m12-4l-4 4m12-4l-4 4m12-4l-4 4m12-4l-4 4m12-4l-4 4m12-4l-4 4m12-4l-4 4m12-4l-4 4m12-4l-4 4m-220 6l-4 4m12-4l-4 4m12-4l-4 4m12-4l-4 4m12-4l-4 4m12-4l-4 4m12-4l-4 4m12-4l-4 4m12-4l-4 4m12-4l-4 4m12-4l-4 4m12-4l-4 4m68-4l-4 4m12-4l-4 4m12-4l-4 4m12-4l-4 4m12-4l-4 4m12-4l-4 4m12-4l-4 4m12-4l-4 4m12-4l-4 4m12-4l-4 4m-220 6l-4 4m12-4l-4 4m12-4l-4 4m12-4l-4 4m12-4l-4 4m12-4l-4 4m12-4l-4 4m12-4l-4 4m12-4l-4 4m12-4l-4 4m12-4l-4 4m12-4l-4 4m68-4l-4 4m12-4l-4 4m12-4l-4 4m12-4l-4 4m12-4l-4 4m12-4l-4 4m12-4l-4 4m12-4l-4 4m12-4l-4 4m12-4l-4 4m-220 6l-4 4m12-4l-4 4m12-4l-4 4m12-4l-4 4m12-4l-4 4m12-4l-4 4m12-4l-4 4m12-4l-4 4m12-4l-4 4m12-4l-4 4m12-4l-4 4m12-4l-4 4m68-4l-4 4m12-4l-4 4m12-4l-4 4m12-4l-4 4m12-4l-4 4m12-4l-4 4m12-4l-4 4m12-4l-4 4m12-4l-4 4m12-4l-4 4m-220 6l-4 4m12-4l-4 4m12-4l-4 4m12-4l-4 4m12-4l-4 4m12-4l-4 4m12-4l-4 4m12-4l-4 4m12-4l-4 4m12-4l-4 4m12-4l-4 4m12-4l-4 4m68-4l-4 4m12-4l-4 4m12-4l-4 4m12-4l-4 4m12-4l-4 4m12-4l-4 4m12-4l-4 4m12-4l-4 4m12-4l-4 4m12-4l-4 4m-220 6l-4 4m12-4l-4 4m12-4l-4 4m12-4l-4 4m12-4l-4 4m12-4l-4 4m12-4l-4 4m12-4l-4 4m12-4l-4 4m12-4l-4 4m12-4l-4 4m12-4l-4 4m68-4l-4 4m12-4l-4 4m12-4l-4 4m12-4l-4 4m12-4l-4 4m12-4l-4 4m12-4l-4 4m12-4l-4 4m12-4l-4 4m12-4l-4 4m-220 6l-4 4m12-4l-4 4m12-4l-4 4m12-4l-4 4m12-4l-4 4m12-4l-4 4m12-4l-4 4m12-4l-4 4m12-4l-4 4m12-4l-4 4m12-4l-4 4m12-4l-4 4m68-4l-4 4m12-4l-4 4m12-4l-4 4m12-4l-4 4m12-4l-4 4m12-4l-4 4m12-4l-4 4m12-4l-4 4m12-4l-4 4m12-4l-4 4m-220 6l-4 4m12-4l-4 4m12-4l-4 4m12-4l-4 4m12-4l-4 4m12-4l-4 4m12-4l-4 4m12-4l-4 4m12-4l-4 4m12-4l-4 4m12-4l-4 4m12-4l-4 4m68-4l-4 4m12-4l-4 4m12-4l-4 4m12-4l-4 4m12-4l-4 4m12-4l-4 4m12-4l-4 4m12-4l-4 4m12-4l-4 4m12-4l-4 4m-220 6l-4 4m12-4l-4 4m12-4l-4 4m12-4l-4 4m12-4l-4 4m12-4l-4 4m12-4l-4 4m12-4l-4 4m12-4l-4 4m12-4l-4 4m12-4l-4 4m12-4l-4 4m68-4l-4 4m12-4l-4 4m12-4l-4 4m12-4l-4 4m12-4l-4 4m12-4l-4 4m12-4l-4 4m12-4l-4 4m12-4l-4 4m12-4l-4 4m-220 6l-4 4m12-4l-4 4m12-4l-4 4m12-4l-4 4m12-4l-4 4m12-4l-4 4m12-4l-4 4m12-4l-4 4m12-4l-4 4m12-4l-4 4m12-4l-4 4m12-4l-4 4m68-4l-4 4m12-4l-4 4m12-4l-4 4m12-4l-4 4m12-4l-4 4m12-4l-4 4m12-4l-4 4m12-4l-4 4m12-4l-4 4m12-4l-4 4m-220 6l-4 4m12-4l-4 4m12-4l-4 4m12-4l-4 4m12-4l-4 4m12-4l-4 4m12-4l-4 4m12-4l-4 4m12-4l-4 4m12-4l-4 4m12-4l-4 4m12-4l-4 4m68-4l-4 4m12-4l-4 4m12-4l-4 4m12-4l-4 4m12-4l-4 4m12-4l-4 4m12-4l-4 4m12-4l-4 4m12-4l-4 4m12-4l-4 4m-220 6l-4 4m12-4l-4 4m12-4l-4 4m12-4l-4 4m12-4l-4 4m12-4l-4 4m12-4l-4 4m12-4l-4 4m12-4l-4 4m12-4l-4 4m12-4l-4 4m12-4l-4 4m68-4l-4 4m12-4l-4 4m12-4l-4 4m12-4l-4 4m12-4l-4 4m12-4l-4 4m12-4l-4 4m12-4l-4 4m12-4l-4 4m12-4l-4 4m-220 6l-4 4m12-4l-4 4m12-4l-4 4m12-4l-4 4m12-4l-4 4m12-4l-4 4m12-4l-4 4m12-4l-4 4m12-4l-4 4m12-4l-4 4m12-4l-4 4m12-4l-4 4m68-4l-4 4m12-4l-4 4m12-4l-4 4m12-4l-4 4m12-4l-4 4m12-4l-4 4m12-4l-4 4m12-4l-4 4m12-4l-4 4m12-4l-4 4m-220 6l-4 4m12-4l-4 4m12-4l-4 4m12-4l-4 4m12-4l-4 4m12-4l-4 4m12-4l-4 4m12-4l-4 4m12-4l-4 4m12-4l-4 4m12-4l-4 4m12-4l-4 4m68-4l-4 4m12-4l-4 4m12-4l-4 4m12-4l-4 4m12-4l-4 4m12-4l-4 4m12-4l-4 4m12-4l-4 4m12-4l-4 4m12-4l-4 4"/></g><g class="C"><path d="M259 215.8l-11.21-40.92-11.21 40.92H206L170.33 85.6h30.37l21.61 88.16 11.82-48.55-10.8-39.62h48.92l-9.78 35.71 12.84 52.45 21.61-88.16h28.34l-35.67 130.2h-30.58zm109.77 1.86q-16.725 0-27.93-9.95a31.809 31.809 0 0 1-11.21-24.83v-45.57a32.111 32.111 0 0 1 11.21-24.92q11.205-10.05 27.93-10.04c11.15 0 20.31 3.38 27.93 10.14s11.41 15.04 11.41 24.83v32.92h-51.17v12.65a9.787 9.787 0 0 0 3.36 7.53 12.048 12.048 0 0 0 8.46 3.07 12.42 12.42 0 0 0 8.56-3.07 9.668 9.668 0 0 0 3.46-7.53v-4.83h27.32v4.83q0 14.7-11.41 24.74-11.41 10.04-27.93 10.04zm-11.82-67.89h23.85v-12.46a9.91 9.91 0 0 0-3.46-7.72 12.437 12.437 0 0 0-8.56-3.07 12.065 12.065 0 0 0-8.46 3.07 10.019 10.019 0 0 0-3.36 7.72v12.46zm106.92 67.89q-16.725 0-27.93-9.95a31.809 31.809 0 0 1-11.21-24.83V67h27.32v37.57a43.589 43.589 0 0 1 14.88-2.23q15.5 0 25.89 9.02a29.28 29.28 0 0 1 10.4 23.16v48.36q0 14.7-11.41 24.74-11.41 10.04-27.93 10.04zm-8.46-27.25a12.048 12.048 0 0 0 8.46 3.07 12.42 12.42 0 0 0 8.56-3.07 9.668 9.668 0 0 0 3.46-7.53v-45.57a9.91 9.91 0 0 0-3.46-7.72 12.437 12.437 0 0 0-8.56-3.07 12.065 12.065 0 0 0-8.46 3.07 10.019 10.019 0 0 0-3.36 7.72v45.57a9.787 9.787 0 0 0 3.36 7.53zm64.16 25.39V85.6h70.94v25.3h-42.4v27.15h38.32v25.3h-38.32v27.16h42.4v25.3h-70.94zm80.54 0l25.28-55.8-25.28-55.8h29.76l10.4 26.78 10.4-26.78h29.76L655.15 160l25.28 55.8h-29.76l-10.4-26.78-10.4 26.78zm92.53 37.2V137.12a31.841 31.841 0 0 1 11.21-24.83q11.205-9.945 27.93-9.95c11.15 0 20.31 3.35 27.93 10.04s11.41 14.94 11.41 24.74v48.36q0 14.145-10.4 23.16-10.395 9.03-25.89 9.02a43.588 43.588 0 0 1-14.88-2.23V253h-27.31zm30.68-62.59a12.048 12.048 0 0 0 8.46 3.07 12.42 12.42 0 0 0 8.56-3.07 9.863 9.863 0 0 0 3.46-7.72v-45.57a9.686 9.686 0 0 0-3.46-7.53 12.438 12.438 0 0 0-8.56-3.07 12.065 12.065 0 0 0-8.46 3.07 9.817 9.817 0 0 0-3.36 7.53v45.57a10.019 10.019 0 0 0 3.36 7.72zm103.55 27.25q-16.725 0-27.93-9.95a31.809 31.809 0 0 1-11.21-24.83v-45.57a32.111 32.111 0 0 1 11.21-24.92q11.2-10.05 27.93-10.04c11.15 0 20.31 3.38 27.93 10.14s11.411 15.04 11.411 24.83v45.57q0 14.7-11.411 24.74-11.411 10.04-27.93 10.04zm-8.46-27.25a12.048 12.048 0 0 0 8.46 3.07 12.42 12.42 0 0 0 8.56-3.07 9.669 9.669 0 0 0 3.461-7.53v-45.57a9.911 9.911 0 0 0-3.461-7.72 12.437 12.437 0 0 0-8.56-3.07 12.065 12.065 0 0 0-8.46 3.07 10.019 10.019 0 0 0-3.36 7.72v45.57a9.787 9.787 0 0 0 3.36 7.53zm108.6 29.24h-5.67a16.17 16.17 0 0 1-6.59-1.33 16.858 16.858 0 0 1-5.08-3.31l-4.05-4.33-3.56-4.33a14.822 14.822 0 0 0-3.59-3.31 7.586 7.586 0 0 0-4.16-1.32 5.223 5.223 0 0 0-3.72 1.32 4.852 4.852 0 0 0 0 6.86 5.262 5.262 0 0 0 3.72 1.33h2.37v8.42h-2.37a14.28 14.28 0 0 1-10.12-3.7 13.233 13.233 0 0 1 0-18.94 14.28 14.28 0 0 1 10.12-3.7 15.03 15.03 0 0 1 7.25 1.74 17.94 17.94 0 0 1 5.31 4.24l3.79 4.99a26.193 26.193 0 0 0 3.56 4.24 5.554 5.554 0 0 0 3.82 1.74V193.3h8.97zm-3.33-52.61a13.233 13.233 0 0 1 0 18.94 14.28 14.28 0 0 1-10.12 3.7h-19.25a14.28 14.28 0 0 1-10.12-3.7 13.233 13.233 0 0 1 0-18.94 14.28 14.28 0 0 1 10.12-3.7h19.25a14.28 14.28 0 0 1 10.12 3.7zm-6.39 12.9a4.852 4.852 0 0 0 0-6.86 5.248 5.248 0 0 0-3.73-1.32h-19.25a5.223 5.223 0 0 0-3.72 1.32 4.852 4.852 0 0 0 0 6.86 5.256 5.256 0 0 0 3.72 1.32h19.25a5.265 5.265 0 0 0 3.73-1.32zm9.72-20.21h-5.67a16.17 16.17 0 0 1-6.59-1.33 16.858 16.858 0 0 1-5.08-3.31l-4.05-4.33-3.56-4.33a14.823 14.823 0 0 0-3.59-3.31 7.505 7.505 0 0 0-4.16-1.32 5.223 5.223 0 0 0-3.72 1.32 4.852 4.852 0 0 0 0 6.86 5.262 5.262 0 0 0 3.72 1.33h2.37v8.42h-2.37a14.28 14.28 0 0 1-10.12-3.7 13.233 13.233 0 0 1 0-18.94 14.28 14.28 0 0 1 10.12-3.7 15.03 15.03 0 0 1 7.25 1.74 17.94 17.94 0 0 1 5.31 4.24l3.79 4.99a26.193 26.193 0 0 0 3.56 4.24 5.554 5.554 0 0 0 3.82 1.74v-16.96h8.97zm-7.78-28.09h-8.97l-29.4-14.56v-11.19h29.4v-4.21h8.97v4.21h7.78v8.42h-7.78zm-8.97-8.18v-9.14h-18.53z"/></g><g class="B F"><path d="M1029,46H69V272h960Z" class="G"/><g class="D E"><path d="M512 32h20m54 0h-20m-23 256h-20m52 0h-20" opacity=".75"/><g class="H"><path d="M573 272h-48m0-226h48"/></g></g><g class="G"><g class="I"><path d="M1033 27h-8v8h8zM73 27h-8v8h8z"/></g><path d="M1033 43h-8v8h8zM73 43h-8v8h8z"/></g></g><g class="C"><path d="M82 62a2 2 0 1 0-2-2 2 2 0 0 0 2 2zm935 1a2 2 0 1 0-2-2 2 2 0 0 0 2 2z"/></g><g class="F G"><g class="I"><path d="M73.33,280.62h-8v8h8Z" class="B"/><path d="M1033.33,280.62h-8v8h8Z" class="C"/></g><g class="B"><path d="M73.33 268.62h-8v8h8zm960 0h-8v8h8z"/></g></g><g class="C"><path d="M82 260a2 2 0 1 0-2-2 2 2 0 0 0 2 2zm935 1a2 2 0 1 0-2-2 2 2 0 0 0 2 2z"/></g><g class="B F"><g class="D E"><path d="M549,2V17" class="H"/><path d="M549,18V31"/><path d="M549,346V316" class="H"/><path d="M549,330V282"/><path d="M1096,159h-30" class="H"/><path d="M1080,159h-38"/><path d="M2,159H32" class="H"/><path d="M18,159H56"/></g><g class="G"><path d="M1021.22,279.86v8" class="I"/><path d="M1016.77,279.86v8" class="L"/><path d="M1012.33,279.86v8" class="M"/><path d="M1007.89,279.86v8" class="J"/><path d="M1003.44,279.86v8" class="N"/><path d="M999,279.86v8" class="O"/><path d="M994.55,279.86v8"/><path d="M990.109,279.86v8" stroke-width=".83"/><path d="M985.66,279.86v8" stroke-width=".67"/><path d="M981.22,279.86v8" class="K"/><path d="M1021.22,281.86v8" class="I"/><path d="M1016.77,281.86v8" class="L"/><path d="M1012.33,281.86v8" class="M"/><path d="M1007.89,281.86v8" class="J"/><path d="M1003.44,281.86v8" class="N"/><path d="M999,281.86v8" class="O"/><path d="M994.55,281.86v8"/><path d="M990.109,281.86v8" stroke-width=".83"/><path d="M985.66,281.86v8" stroke-width=".67"/><g class="K"><path d="M981.22,281.86v8"/></g></g><g class="D E K"><path d="M34 149h22m-22-4h22m-22-4h22"/></g></g><g opacity=".75" class="B D E F"><path d="M80 289v-12.6m4 7.88v-7.88m4 3.68v-3.68m4 5.78v-5.78m4 5.78v-5.78m4 7.88v-7.88m4 5.78v-5.78m4 3.68v-3.68m8 5.78v-5.78m4 3.68v-3.68m4 1.05v-1.05m4 1.05v-1.05m4 1.05v-1.05m4 1.05v-1.05m-24 7.88v-7.88m28 4.52v-4.52m4 5.83v-5.83m4 3.68v-3.68m4 5.78v-5.78m4 5.78v-5.78m4 1.79v-1.79m4 5.99v-5.99m4 3.68v-3.68m8 5.99v-5.99m4 3.68v-3.68m4 1.05v-1.05m4 1.79v-1.79m4 1.79v-1.79m4 1.79v-1.79m-24 4.94v-4.94m80 0v3.78m-4-3.78v1.77m-4-1.77v2.78m-4-2.78v2.78m-4-2.78v.86m-4-.86v3.89m-4-3.89v1.77m-8-1.77v3.89m-4-3.89v3.68m-4-3.68v1.05m-4-1.05v1.79m-4-1.79v1.79m-4-1.79v4.94m24-4.94v2.37"/></g><g class="B F G"><path d="M1020 31h-4v4h4zm-8 0h-4v4h4zm-8 0h-4v4h4zm-8 0h-4v4h4zm-8 0h-4v4h4zm-8 0h-4v4h4zm-8 0h-4v4h4zm-8 0h-4v4h4zm56-4h-4v1h4zm-8 0h-4v1h4zm-8 0h-4v1h4zm-8 0h-4v1h4zm-8 0h-4v1h4zm-8 0h-4v1h4zm-8 0h-4v1h4zm-8 0h-4v1h4z"/></g><path d="M770.75,268.25h-77.5v7.5h77.5Z"/><path d="M770.5,268.5v7h-77v-7Zm.5-.5H693v8h78Z" class="C"/><path d="M502.75,41.25h-77.5v7.5h77.5Z"/><path d="M502.5,41.5v7h-77v-7Zm.5-.5H425v8h78Z" class="C"/><g class="B D E F J"><path d="M596.88,34.12l4.24-4.24"/><path d="M596.88 29.88l4.24 4.24m-522.24 0l4.24-4.24"/><path d="M78.88 29.88l4.24 4.24m521.76 0l4.24-4.24"/><path d="M604.88 29.88l4.24 4.24m3.76 0l4.24-4.24"/><path d="M612.88 29.88l4.24 4.24m3.76 0l4.24-4.24"/><path d="M620.88 29.88l4.24 4.24m3.76 0l4.24-4.24"/><path d="M628.88 29.88l4.24 4.24m3.76 0l4.24-4.24"/><path d="M636.88 29.88l4.24 4.24m3.76 0l4.24-4.24"/><path d="M644.88,29.88l4.24,4.24"/></g></g></g></svg>