<svg version="1.1" viewBox="0 0 64 64" xmlns="http://www.w3.org/2000/svg">
 <path d="m40.44 21.94c-1.293-0.0068-2.737 0.784-3.354 1.888 0 0-1.172 2.098-3.593 3.083-1.98 0.8041-3.451 0.5519-3.451 0.5519-1.375-0.2375-3.076 0.5553-3.78 1.761l-2.362 4.045c-0.7134 1.233-1.196 2.85 0.7369 2.85h1.645c1.59 0 3.575-1.108 4.409-2.463 0 0 1.503-2.439 4.468-2.501 3.45-0.07125 6.305 2.668 6.376 6.117 0.06988 3.45-2.669 6.305-6.119 6.375-3.054 0.06282-4.693-2.522-4.693-2.522-0.8511-1.342-2.85-2.442-4.44-2.442l-4.037 0.02563c-0.765 0.03477-1.564 0.2101-2.11 1.007l-1.492 2.555c-0.1824 0.3141-0.3678 0.6291-0.5516 0.9434-0.7036 1.204-2.4 1.974-3.77 1.709 0 0-2.259-0.4375-4.635 0.5282-4.926 2.002-7.295 7.62-5.293 12.54 2.003 4.927 7.62 7.296 12.55 5.293s7.295-7.62 5.292-12.55c-0.5888-1.449-0.881-1.766-0.881-1.766-0.9438-1.027-1.141-2.854-0.4364-4.058l0.2152-0.5524c6.66 4.908 15.63 6.345 23.86 3 9.853-4.005 15.7-13.68 15.31-23.72l-2.44-0.2238s-0.894 0.1846-1.429 0.7358c-0.09285 0.1503-0.1898 0.2965-0.2953 0.4384h-0.0013c-0.03141 0.07922-0.08266 0.1347-0.1397 0.1804-0.6444 0.8056-1.497 1.463-2.522 1.88-1.496 0.6087-3.09 0.5952-4.496 0.081-0.0019-6.36e-4 -0.0036-0.0013-0.0054-0.0019 0-5.7e-5 0-8.2e-5 -9.54e-4 -1.68e-4 -0.01691-0.0062-0.03342-0.01354-0.05028-0.01987-0.07667-0.02887-0.1532-0.05819-0.2287-0.09004-0.09188-0.03876-0.1828-0.07963-0.2727-0.1227 0-8.6e-5 0-2.54e-4 -9.54e-4 -3.18e-4 -0.08994-0.04311-0.179-0.08834-0.2668-0.1357 0-8.6e-5 0-2.52e-4 -9.53e-4 -3.18e-4 -0.08784-0.04738-0.1745-0.09695-0.2601-0.1485 0-8.6e-5 0-2.55e-4 -9.54e-4 -3.18e-4 -0.08557-0.05159-0.1701-0.1051-0.2532-0.1609-7e-5 -4.1e-5 0-8.3e-5 0-1.65e-4 -0.08324-0.05578-0.1652-0.1137-0.2458-0.1735 0-8.3e-5 0-2.51e-4 -9.54e-4 -3.18e-4 -0.08052-0.05978-0.1597-0.1216-0.2374-0.1853 0-8.3e-5 0-1.69e-4 -9.53e-4 -3.18e-4 -0.05288-0.04338-0.1041-0.08904-0.1556-0.1342-0.02435-0.02137-0.04957-0.04166-0.07361-0.06342-0.07478-0.06769-0.148-0.1373-0.2197-0.2088-0.07183-0.07169-0.1421-0.1452-0.2106-0.2207v-3.18e-4c-0.1369-0.1507-0.2669-0.3091-0.3895-0.4745-0.06145-0.08285-0.121-0.1674-0.1786-0.2538v-3.18e-4c-0.2303-0.3454-0.4296-0.719-0.5921-1.119l-0.08675-0.2139c-0.0046-0.01488-0.01364-0.03027-0.02677-0.04601-0.02102-0.02515-0.05535-0.05135-0.0966-0.07821-0.01024-0.0066-0.01835-0.01313-0.02976-0.01987-0.02881-0.01701-0.06116-0.0343-0.09709-0.05175 0-8e-5 0-2.52e-4 -9.54e-4 -3.18e-4 -0.03578-0.01739-0.07508-0.0349-0.1175-0.05258-0.1705-0.07105-0.3928-0.144-0.6521-0.2146-8.3e-5 -2.9e-5 0-1.69e-4 0-1.69e-4 -0.06473-0.01761-0.1318-0.03501-0.2009-0.05225v-1.69e-4c-0.0029-6.35e-4 -0.0063-0.0013-0.0092-0.0022-0.1327-0.03295-0.2731-0.06509-0.4195-0.09595-0.0034-6.36e-4 -0.0066-0.0016-0.01002-0.0022-0.307-0.06447-0.6402-0.1232-0.9852-0.172l-1.764-0.2502c-0.1295-0.01831-0.2617-0.02757-0.3955-0.02826z" fill="#2c93c4"/>
 <path d="m23.12 23.51-0.4798-1.178c-1.732-4.26 0.3172-9.118 4.577-10.85 4.26-1.733 9.118 0.3164 10.85 4.577l0.3023 0.7428c0.1454 0.8377 1.394 1.682 2.777 1.878l1.427 0.2016c1.382 0.196 3.047-0.653 3.7-1.886 0 0 0.6101-1.153 2.491-1.918 3.197-1.299 6.841 0.2381 8.141 3.434 0.0812 0.2016 0.1511 0.4042 0.211 0.608 0.2125 0.4719 0.5988 0.7135 0.9823 0.8363l1.808 0.1653c-0.2994-1.61-0.7656-3.213-1.406-4.788-5.114-12.58-19.46-18.63-32.03-13.51-12.58 5.113-18.63 19.46-13.51 32.03 0.8717 2.146 2.019 4.096 3.374 5.839l7.112-12.18c0.7028-1.205 0.561-3.007-0.3179-4.005z" fill="#12d663"/>
</svg>
