<svg
  width="23"
  height="25"
  viewBox="0 0 23 25"
  fill="none"
  xmlns="http://www.w3.org/2000/svg"
>
  <path
    opacity="0.7"
    fill-rule="evenodd"
    clip-rule="evenodd"
    d="M10.6742 6.12141C10.7902 5.83421 11.0648 5.64623 11.3702 5.64465H7.8033C6.56623 5.64465 5.47423 6.46523 5.11223 7.66682C4.55868 9.50424 5.91164 11.3621 7.8033 11.3621H10.6678L10.6675 11.3629H13.0786C13.6167 11.3629 13.9828 11.9174 13.7786 12.4231C13.6713 12.6885 13.4286 12.8692 13.1514 12.8963H16.6496C17.8865 12.8963 18.9784 12.0759 19.3404 10.8745C19.883 9.07343 18.5938 7.25274 16.7608 7.18165H11.3741C10.836 7.18165 10.4699 6.6271 10.6742 6.12141Z"
    fill="white"
  />
  <path
    d="M11.14 5.64558L11.1762 5.64572H15.8967C18.7725 5.64572 21.3034 3.37062 22.1095 0.0609131H11.9165C9.04359 0.0609131 6.51329 2.34153 5.70459 5.64572C5.43555 6.54601 5.27024 7.05021 5.04321 7.95212C6.13613 5.62562 8.58744 5.63539 11.14 5.64558Z"
    fill="white"
  />
  <path
    d="M19.3758 10.7445C18.6363 12.1476 17.166 12.8174 14.7414 12.8956H8.5952C5.69643 12.8512 3.11637 14.7548 2.26136 17.5687L0.040329 24.8782C2.93911 24.9226 5.51916 23.019 6.37417 20.205L6.70289 19.1234C7.08491 18.1112 7.50346 17.6654 8.79033 17.6654H12.5544C15.4533 17.6654 18.0046 15.7223 18.8171 12.8956H18.8164L19.3758 10.7445Z"
    fill="white"
  />
</svg>
