<?xml version="1.0" encoding="UTF-8"?>
<svg fill="none" version="1.1" viewBox="0 0 132 27" xmlns="http://www.w3.org/2000/svg"><g clip-path="url(#clip0)"><path d="m11.101 6.8662c0.1207-0.29868 0.4063-0.49417 0.7239-0.49582h-3.7096c-1.2866 0-2.4222 0.8534-2.7987 2.1031-0.57569 1.9109 0.83139 3.8431 2.7987 3.8431h2.979l-2e-4 8e-4h2.5075c0.5596 0 0.9404 0.5768 0.7279 1.1027-0.1115 0.276-0.3639 0.4639-0.6522 0.4921h3.6381c1.2864 0 2.4219-0.8533 2.7985-2.1027 0.5643-1.8731-0.7766-3.7666-2.6828-3.8406h-5.6023c-0.5596 0-0.9403-0.57674-0.7279-1.1027z" clip-rule="evenodd" fill="url(#paint0_radial)" fill-rule="evenodd"/><path d="m11.586 6.3715 0.0377 1.5e-4h4.9093c2.9909 0 5.623-2.3661 6.4613-5.8082h-10.601c-2.9878 0-5.6193 2.3718-6.4604 5.8082-0.2798 0.9363-0.45172 1.4607-0.68783 2.3986 1.1366-2.4196 3.686-2.4094 6.3406-2.3988z" fill="url(#paint1_linear)"/><path d="m20.151 11.674c-0.7691 1.4592-2.2982 2.1559-4.8198 2.2372h-6.392c-3.0147-0.0462-5.698 1.9335-6.5872 4.86l-2.3099 7.6018c3.0147 0.0462 5.698-1.9335 6.5872-4.86l0.34186-1.1249c0.39731-1.0527 0.8326-1.5164 2.1709-1.5164h3.9146c3.0149 0 5.6683-2.0208 6.5132-4.9605h-7e-4l0.5818-2.2372z" fill="url(#paint2_linear)"/><g fill="#1EE2C7"><path d="m31.282 15.774c0.0856 1.196 1.1561 3.3924 4.4958 3.3924 2.8473 0 4.2389-1.8049 4.2389-3.6534 0-1.5875-1.0704-2.9358-3.2755-3.3925l-1.4129-0.2827c-0.471-0.087-0.8349-0.348-0.8349-0.8047 0-0.5654 0.5351-0.9351 1.156-0.9351 0.9847 0 1.4344 0.6089 1.52 1.3266l2.6976-0.5002c-0.1071-1.2613-1.1776-3.2186-4.2604-3.2186-2.3764 0-4.0891 1.6093-4.0891 3.5882 0 1.5223 0.8992 2.8271 3.1686 3.3273l1.2202 0.2827c0.7921 0.174 1.0491 0.5002 1.0491 0.8916 0 0.4784-0.4069 0.9351-1.2418 0.9351-1.1133 0-1.627-0.7176-1.6698-1.457l-2.7618 0.5002z"/><path d="m48.921 18.84h3.1258c-0.0215-0.1739-0.1071-0.9568-0.1071-1.9354v-8.8728h-3.2542v6.1544c0 1.0873-0.6851 1.8485-1.7768 1.8485-1.1561 0-1.7127-0.8264-1.7127-1.8702v-6.1327h-3.2542v6.8286c0 2.3051 1.4558 4.2188 4.0463 4.2188 1.0704 0 2.2907-0.3913 2.8473-1.3266 0 0.2827 0.0428 0.8918 0.0856 1.0874z"/><path d="m58.056 22.972v-4.9801c0.4925 0.6089 1.52 1.0874 2.8903 1.0874 2.9757 0 5.0738-2.3703 5.0738-5.6759 0-3.2403-1.8626-5.6325-4.9454-5.6325-1.52 0-2.6761 0.67416-3.1256 1.3701v-1.1091h-3.1471v14.94h3.254zm4.7742-9.5469c0 1.805-1.1346 2.6966-2.4192 2.6966-1.263 0-2.3978-0.9133-2.3978-2.6966 0-1.8049 1.1348-2.6748 2.3978-2.6748 1.2846 0 2.4192 0.8699 2.4192 2.6748z"/><path d="m70.582 12.142c0.0642-0.8046 0.7492-1.8267 2.1195-1.8267 1.5413 0 2.0979 1.0003 2.1409 1.8267h-4.2604zm4.4957 2.8054c-0.2996 0.8481-0.9633 1.4135-2.1407 1.4135-1.2632 0-2.355-0.8698-2.4193-2.0877h7.4075c0.0213-0.0652 0.0641-0.5654 0.0641-1.0221 0-3.4795-2.0338-5.5454-5.3307-5.5454-2.7618 0-5.3093 2.2182-5.3093 5.6976 0 3.6318 2.6118 5.7629 5.5449 5.7629 2.6974 0 4.3887-1.5657 4.9025-3.4359l-2.719-0.7829z"/><path d="m86.844 8.0323c-0.2142-0.06524-0.5353-0.10874-0.8564-0.10874-0.8563 0-2.2051 0.34796-2.7617 1.5658v-1.457h-3.1471v10.808h3.2542v-4.7191c0-2.1529 1.1774-2.9358 2.4833-2.9358 0.3212 0 0.6638 0.0218 1.0277 0.1087v-3.262z"/><path d="m95.232 10.816v-2.7836h-2.3122v-0.82638c0-1.1961 0.8135-1.457 1.3916-1.457 0.5137 0 0.792 0.06524 0.9634 0.10874v-2.6966c-0.2998-0.15223-0.8778-0.23921-1.5415-0.23921-2.5905 0-4.0677 1.6963-4.0677 4.1754v0.93512h-1.6912v2.7836h1.6912v8.0246h3.2542v-8.0246h2.3122z"/><path d="m99.33 13.426c0-1.8702 1.0492-2.8489 2.4402-2.8489 1.328 0 2.42 0.9787 2.42 2.8489 0 1.8267-1.114 2.8707-2.42 2.8707-1.348 0-2.4402-1.0875-2.4402-2.8707zm4.8812 4.132c0 0.4566 0.043 1.0437 0.086 1.2829h3.125c-0.021-0.2392-0.085-0.9351-0.085-1.9353v-8.8728h-3.147v1.2396c-0.215-0.50019-1.05-1.5658-2.955-1.5658-3.147 0-5.1807 2.4792-5.1807 5.6976 0 3.3273 2.1623 5.7412 5.2877 5.7412 1.327 0 2.398-0.6523 2.869-1.6962v0.1088z"/><path d="m115.04 10.751c1.263 0 1.906 0.7829 2.141 1.6093l2.912-0.8916c-0.471-1.9355-2.184-3.7622-5.117-3.7622-3.126 0-5.609 2.3704-5.609 5.7412 0 3.3491 2.548 5.7194 5.716 5.7194 2.847 0 4.603-1.8702 5.074-3.7621l-2.869-0.8917c-0.235 0.8047-0.942 1.6093-2.205 1.6093-1.349 0-2.483-0.9569-2.483-2.6749 0-1.7397 1.091-2.6966 2.44-2.6966z"/><path d="m124.5 12.142c0.064-0.8046 0.749-1.8267 2.119-1.8267 1.542 0 2.098 1.0003 2.141 1.8267h-4.26zm4.495 2.8054c-0.299 0.8481-0.963 1.4135-2.14 1.4135-1.263 0-2.355-0.8698-2.42-2.0877h7.408c0.021-0.0652 0.064-0.5654 0.064-1.0221 0-3.4795-2.034-5.5454-5.331-5.5454-2.761 0-5.309 2.2182-5.309 5.6976 0 3.6318 2.612 5.7629 5.545 5.7629 2.697 0 4.389-1.5657 4.902-3.4359l-2.719-0.7829z"/></g></g><defs><radialGradient id="paint0_radial" cx="0" cy="0" r="1" gradientTransform="translate(12.715 10.143) rotate(90) scale(4.1152 6.0304)" gradientUnits="userSpaceOnUse"><stop stop-color="#1EE2C7" offset="0"/><stop stop-color="#158E78" offset="1"/></radialGradient><linearGradient id="paint1_linear" x1="23.019" x2="7.2633" y1="3.5983" y2="5.13" gradientUnits="userSpaceOnUse"><stop stop-color="#1EE2B3" offset="0"/><stop stop-color="#59E0E9" offset="1"/></linearGradient><linearGradient id="paint2_linear" x1="20.18" x2="2.2279" y1="17.11" y2="18.214" gradientUnits="userSpaceOnUse"><stop stop-color="#1EE2B3" offset="0"/><stop stop-color="#59E0E9" offset="1"/></linearGradient><clipPath id="clip0"><rect transform="translate(0 .5)" width="131.95" height="26" fill="#fff"/></clipPath></defs></svg>
